<svg width="484" height="117" xmlns="http://www.w3.org/2000/svg" xmlns:xlink="http://www.w3.org/1999/xlink" xml:space="preserve" overflow="hidden"><defs><clipPath id="clip0"><rect x="143" y="121" width="484" height="117"/></clipPath></defs><g clip-path="url(#clip0)" transform="translate(-143 -121)"><path d="M201.43 179.5 201.43 179.5 201.57 179.5 201.57 179.5ZM201.515 121.001 201.515 121.008 209.733 121.113C249.598 122.516 260.1 137.299 259.999 179.538L250.468 179.563 259.947 179.575C260.285 226.42 246.486 238.106 201.485 237.999L201.485 237.992 193.267 237.887C153.402 236.483 142.9 221.701 143.001 179.461L152.532 179.437 143.053 179.425C142.715 132.579 156.514 120.893 201.515 121.001Z" fill="#FF0000" fill-rule="evenodd"/><path d="M215.667 154C218.982 154 221.916 154.443 224.469 155.329 227.022 156.215 229.094 157.33 230.684 158.676 232.274 160.022 233.472 161.446 234.279 162.949 235.085 164.451 235.488 165.786 235.488 166.952 235.488 168.208 235.023 169.279 234.094 170.165 233.164 171.05 232.05 171.493 230.751 171.493 230.034 171.493 229.346 171.325 228.685 170.989 228.024 170.652 227.47 170.181 227.022 169.576 225.79 167.647 224.749 166.189 223.898 165.202 223.047 164.216 221.899 163.386 220.454 162.713 219.01 162.04 217.167 161.704 214.928 161.704 212.621 161.704 210.56 162.102 208.746 162.898 206.932 163.694 205.381 164.849 204.093 166.363 202.805 167.877 201.82 169.733 201.137 171.931 200.454 174.129 200.112 176.562 200.112 179.231 200.112 185.017 201.439 189.469 204.093 192.586 206.747 195.704 210.448 197.262 215.197 197.262 217.503 197.262 219.67 196.96 221.697 196.354 223.724 195.749 225.779 194.885 227.862 193.764L227.862 185.757 220.135 185.757C218.276 185.757 216.871 185.477 215.919 184.916 214.967 184.355 214.491 183.402 214.491 182.057 214.491 180.958 214.889 180.049 215.684 179.332 216.479 178.614 217.559 178.255 218.926 178.255L230.247 178.255C231.636 178.255 232.812 178.379 233.775 178.625 234.738 178.872 235.516 179.421 236.11 180.274 236.703 181.126 237 182.404 237 184.109L237 193.562C237 194.818 236.877 195.821 236.63 196.573 236.384 197.324 235.93 198.003 235.27 198.608 234.609 199.214 233.763 199.797 232.733 200.357 229.754 201.972 226.888 203.15 224.133 203.89 221.378 204.63 218.377 205 215.129 205 211.344 205 207.895 204.417 204.782 203.251 201.669 202.084 199.015 200.391 196.82 198.171 194.625 195.95 192.94 193.259 191.764 190.097 190.588 186.935 190 183.402 190 179.5 190 175.665 190.571 172.155 191.713 168.97 192.856 165.786 194.535 163.083 196.753 160.863 198.97 158.642 201.669 156.944 204.849 155.766 208.03 154.589 211.635 154 215.667 154Z" fill="#FFFFFF" fill-rule="evenodd"/><path d="M168.262 169C168.949 169 169.505 169.235 169.931 169.705 170.356 170.174 170.569 170.889 170.569 171.85L170.569 178.499 180.431 178.499 180.431 171.85C180.431 170.9 180.638 170.187 181.054 169.713 181.469 169.238 182.015 169 182.692 169 183.379 169 183.936 169.235 184.361 169.705 184.787 170.174 185 170.889 185 171.85L185 190.134C185 191.095 184.785 191.813 184.354 192.287 183.923 192.762 183.369 193 182.692 193 182.005 193 181.456 192.76 181.046 192.28 180.636 191.799 180.431 191.084 180.431 190.134L180.431 182.33 170.569 182.33 170.569 190.134C170.569 191.095 170.354 191.813 169.923 192.287 169.492 192.762 168.938 193 168.262 193 167.574 193 167.026 192.76 166.615 192.28 166.205 191.799 166 191.084 166 190.134L166 171.85C166 170.9 166.203 170.187 166.608 169.713 167.013 169.238 167.564 169 168.262 169Z" fill="#FFFFFF" fill-rule="evenodd"/><path d="M302 203.333 329.84 203.333 329.84 209.833 302 209.833ZM407.425 190.045 407.425 204.056 442.713 204.056 442.713 190.045ZM399.905 183.545 450.233 183.545 450.233 210.556 399.905 210.556ZM520.148 166.916 527.668 166.916 527.668 179.839 543.72 208.566 537.247 211.294 523.901 187.134 510.555 211.294 504.095 208.566 520.148 179.816ZM421.309 156.687 428.829 156.687 428.829 163.394 460.529 181.336 456.699 186.541 424.983 168.899 393.427 186.541 389.61 181.336 421.309 163.386ZM333.317 150.395 374.319 150.395 374.319 156.895 357.537 156.895 357.537 203.189 376.022 203.189 376.022 209.689 331.858 209.689 331.858 203.189 350.017 203.189 350.017 156.895 333.317 156.895ZM510.727 148.806 518.247 148.806 518.247 156.389 543.866 156.389 543.866 175.642 536.345 175.642 536.345 162.889 516.649 162.889 508.854 174.579 502.619 171.589 510.727 158.744ZM435.342 148.228 460.513 162.32 456.682 167.526 431.62 153.505ZM414.699 148.228 418.518 153.498 393.443 167.526 389.625 162.322ZM573.005 148.014 578.619 151.68 572.377 159.171 572.377 211.928 564.856 211.928 564.856 166.321 559.268 173.769 553.588 170.161ZM316.569 147.578 322.624 150.806 310.139 167.8 318.746 167.8 323.119 162.556 329.029 166.12 310.302 189.178 329.19 189.178 329.19 195.678 302.081 195.678 302.081 189.037 314.404 174.3 302.163 174.3 302.163 167.528ZM484.404 147.506 491.306 149.376 489.279 154.8 506.06 154.8 506.06 161.3 487.238 161.3 481.372 178.253 481.372 178.778 487.422 178.778 487.422 165.529 494.94 165.529 494.995 178.778 505.4 178.778 505.4 185.278 494.942 185.278 494.942 192.934 506.454 192.934 506.454 199.434 494.942 199.434 494.942 212 487.422 212 487.422 199.434 471.45 199.434 471.45 192.934 487.422 192.934 487.422 185.278 473.951 185.278 473.951 177.425 479.778 161.3 471.914 161.3 471.914 154.8 481.748 154.8ZM597.996 147 605.516 147 605.516 161.661 625.054 161.661 625.054 168.161 605.516 168.161 605.516 183.472 627 183.472 627 189.972 605.516 189.972 605.516 211.928 597.996 211.928 597.996 189.972 576.593 189.972 576.593 183.472 597.996 183.472 597.996 168.161 587.565 168.161 581.726 177.16 575.471 174.251 581.633 164.171 581.633 152.634 589.153 152.634 589.153 161.661 597.996 161.661Z" fill="#FF0000" fill-rule="evenodd"/></g></svg>