<svg xmlns="http://www.w3.org/2000/svg" width="128" height="128" viewBox="0 0 24 24"><g fill="none"><path fill="url(#IconifyId190d03899d64dfab00)" d="M8.048 2.14a.656.656 0 0 1 .944.156l3.217 4.635L15 2.321a.653.653 0 0 1 .943-.187a.743.743 0 0 1 .175 1l-3.06 5.015l.462.675l4.197-6.515a.655.655 0 0 1 .95-.163c.3.225.375.675.156 1l-4.46 6.896l.75 1.087l5.653-8.814a.657.657 0 0 1 .937-.175a.735.735 0 0 1 .168 1l-5.909 9.207l5.903 8.508a.745.745 0 0 1-.144 1a.66.66 0 0 1-.95-.156L7.899 3.139a.737.737 0 0 1 .15-.999m-5.765 0a.656.656 0 0 1 .95.15l9.532 13.555l3.666 4.998a.73.73 0 0 1-.118 1a.65.65 0 0 1-.95-.126L12.24 17.47l-2.905 4.229a.665.665 0 0 1-.95.156a.737.737 0 0 1-.15-1l3.143-4.566l-.431-.606l-4.473 6.04a.65.65 0 0 1-.95.125a.736.736 0 0 1-.118-.999l4.704-6.36l-.662-.936l-5.891 8.164a.657.657 0 0 1-.95.138a.737.737 0 0 1-.125-1l6.122-8.495l-6.471-9.214a.747.747 0 0 1 .143-1zm2.704 0a.656.656 0 0 1 .95.15L19.15 20.849a.74.74 0 0 1-.131 1a.653.653 0 0 1-.95-.144L4.856 3.145a.74.74 0 0 1 .131-.999zm8.265 2.049a.937.937 0 1 1-1.874 0a.937.937 0 0 1 1.874 0m-.937 16.554a.938.938 0 1 0 0-1.876a.938.938 0 0 0 0 1.876"/><defs><linearGradient id="IconifyId190d03899d64dfab00" x1="12.002" x2="12.002" y1="2.003" y2="21.992" gradientUnits="userSpaceOnUse"><stop stop-color="#5E189B"/><stop offset=".27" stop-color="#D11EF8"/><stop offset=".46" stop-color="#6B78FB"/><stop offset="1" stop-color="#31A8FA"/></linearGradient></defs></g></svg>